<svg width="44" height="47" viewBox="0 0 44 47" fill="none" xmlns="http://www.w3.org/2000/svg">
<path fill-rule="evenodd" clip-rule="evenodd" d="M6.32614 12.6402C9.82013 12.6402 12.6516 9.81058 12.6516 6.3204C12.6516 2.82896 9.81949 0 6.32614 0C2.83214 0 0 2.82959 0 6.3204C0 9.81058 2.83214 12.6402 6.32614 12.6402Z" fill="#F28262"/>
<path d="M5.68913 23.6056C6.43316 25.0357 6.9727 25.5339 8.42062 26.3684C9.83861 27.185 11.4292 27.685 13.0995 27.685C14.7436 27.685 16.303 27.1703 17.7139 26.3728C19.0523 25.6167 20.0804 24.693 21.0359 23.3859L18.5204 17.8394L18.4631 17.7299C17.2808 15.2016 14.7595 13.7186 12.121 13.7186C11.1203 13.7186 10.1036 13.932 9.13599 14.3818C5.6318 16.0106 4.09788 20.1301 5.68913 23.6056Z" fill="#F28262"/>
<path d="M37.0446 20.9646C39.922 14.6296 42.4038 9.05763 42.9019 7.87407C43.1281 7.33707 43.2707 6.79434 43.3364 6.25925C43.293 4.33166 42.1585 2.59836 40.2048 1.73458C39.4602 1.40524 38.683 1.24918 37.9199 1.24918C35.8821 1.24918 33.9398 2.35948 32.9448 4.24057C32.6996 4.70431 32.2594 5.54007 31.6918 6.61725C29.0712 11.8509 24.4051 21.178 23.1272 23.7082C21.9997 25.9403 20.1314 27.7169 17.8216 28.6087C16.5202 29.2272 15.057 29.5776 13.4893 29.5776C11.17 29.5776 9.03852 28.8189 7.35236 27.5506C8.98246 31.3561 11.619 37.3013 14.2257 42.2853C14.2486 42.3292 14.3646 42.5305 14.3818 42.5611C15.5793 44.6097 17.7827 45.9997 20.3199 46.0449C22.1386 45.8952 23.7623 45.1047 24.9472 43.916C25.5154 43.4173 26.0352 42.8229 26.4881 42.1254C27.8558 40.0201 32.8983 29.656 37.0446 20.9646Z" fill="#F28262"/>
</svg>
