<?xml version="1.0" encoding="UTF-8" standalone="no"?>
<svg xmlns="http://www.w3.org/2000/svg" xmlns:xlink="http://www.w3.org/1999/xlink" xmlns:serif="http://www.serif.com/" width="100%" height="100%" viewBox="0 0 148 65" version="1.1" xml:space="preserve" style="fill-rule:evenodd;clip-rule:evenodd;stroke-linejoin:round;stroke-miterlimit:2;">
    <g id="LOGO" transform="matrix(0.0637009,0,0,0.0637009,-3.01274,-3.1626)">
        <g id="Vivira_00000008134824782468378100000007659808657092827549_">
            <path d="M2093.52,528.07L2057.34,528.07L1927.59,822.04L1974.17,822.04L2003.28,749.38L2143.42,749.38L2172.95,822.04L2219.52,822.04L2093.52,528.07ZM2017.42,714.5L2073.14,579.56L2073.97,579.56L2128.87,714.5L2017.42,714.5Z" style="fill:rgb(80,85,85);"></path>
            <path d="M1866.67,679.01C1875.67,674.17 1883.31,668.21 1889.54,661.16C1895.77,654.09 1900.56,646.21 1903.89,637.49C1907.22,628.77 1908.89,619.71 1908.89,610.29C1908.89,601.16 1907.5,591.68 1904.73,581.85C1901.96,572.03 1897.03,563.17 1889.97,555.28C1882.91,547.39 1873.26,540.88 1861.06,535.77C1848.86,530.65 1833.33,528.09 1814.49,528.09L1710.94,528.09L1710.94,822.06L1750.86,822.06L1750.86,692.5L1795.35,692.5L1870.21,822.05L1920.11,822.05L1836.53,687.94C1847.6,686.83 1857.65,683.85 1866.67,679.01M1803.25,657.63L1750.85,657.63L1750.85,562.96L1803.25,562.96C1811.01,562.96 1818.7,563.58 1826.33,564.82C1833.96,566.07 1840.75,568.35 1846.71,571.67C1852.67,575 1857.45,579.77 1861.05,585.99C1864.66,592.21 1866.46,600.31 1866.46,610.28C1866.46,620.25 1864.65,628.34 1861.05,634.57C1857.45,640.8 1852.66,645.58 1846.71,648.89C1840.75,652.22 1833.96,654.49 1826.33,655.74C1818.71,657 1811.01,657.63 1803.25,657.63" style="fill:rgb(80,85,85);"></path>
            <rect x="1620.47" y="625.24" width="37.43" height="196.81" style="fill:rgb(80,85,85);"></rect>
            <path d="M1639.18,527.24C1631.7,527.24 1625.25,529.94 1619.85,535.34C1614.44,540.73 1611.74,547.17 1611.74,554.65C1611.74,562.12 1614.44,568.56 1619.85,573.95C1625.25,579.35 1631.7,582.05 1639.18,582.05C1646.67,582.05 1653.12,579.35 1658.52,573.95C1663.93,568.56 1666.63,562.12 1666.63,554.65C1666.63,547.17 1663.93,540.73 1658.52,535.34C1653.12,529.94 1646.68,527.24 1639.18,527.24" style="fill:rgb(80,85,85);"></path>
            <path d="M1465.77,767.24L1464.94,767.24L1378.43,528.07L1332.27,528.07L1445.81,822.05L1483.23,822.05L1599.26,528.07L1555.59,528.07L1465.77,767.24Z" style="fill:rgb(80,85,85);"></path>
            <rect x="1266.15" y="625.24" width="37.44" height="196.81" style="fill:rgb(80,85,85);"></rect>
            <path d="M1284.86,527.24C1277.38,527.24 1270.93,529.94 1265.53,535.34C1260.12,540.73 1257.42,547.17 1257.42,554.65C1257.42,562.12 1260.12,568.56 1265.53,573.95C1270.93,579.35 1277.38,582.05 1284.86,582.05C1292.35,582.05 1298.8,579.35 1304.2,573.95C1309.61,568.56 1312.31,562.12 1312.31,554.65C1312.31,547.17 1309.61,540.73 1304.2,535.34C1298.8,529.94 1292.36,527.24 1284.86,527.24" style="fill:rgb(80,85,85);"></path>
            <path d="M1111.45,767.24L1110.62,767.24L1024.12,528.07L977.95,528.07L1091.49,822.05L1128.92,822.05L1244.94,528.07L1201.28,528.07L1111.45,767.24Z" style="fill:rgb(80,85,85);"></path>
        </g>
        <g id="V_00000082353367329787773050000012853725987471255725_">
            <path d="M297.74,396.86C352.59,396.86 397.04,352.44 397.04,297.65C397.04,242.84 352.58,198.43 297.74,198.43C242.89,198.43 198.43,242.85 198.43,297.65C198.43,352.44 242.89,396.86 297.74,396.86" style="fill:rgb(242,130,98);"></path>
        </g>
        <path d="M287.74,569C299.42,591.45 307.89,599.27 330.62,612.37C352.88,625.19 377.85,633.04 404.07,633.04C429.88,633.04 454.36,624.96 476.51,612.44C497.52,600.57 513.66,586.07 528.66,565.55L489.17,478.48L488.27,476.76C469.71,437.07 430.13,413.79 388.71,413.79C373,413.79 357.04,417.14 341.85,424.2C286.84,449.77 262.76,514.44 287.74,569Z" style="fill:rgb(242,130,98);fill-rule:nonzero;"></path>
        <path d="M779.97,527.54C825.14,428.09 864.1,340.62 871.92,322.04C875.47,313.61 877.71,305.09 878.74,296.69C878.06,266.43 860.25,239.22 829.58,225.66C817.89,220.49 805.69,218.04 793.71,218.04C761.72,218.04 731.23,235.47 715.61,265C711.76,272.28 704.85,285.4 695.94,302.31C654.8,384.47 581.55,530.89 561.49,570.61C543.79,605.65 514.46,633.54 478.2,647.54C457.77,657.25 434.8,662.75 410.19,662.75C373.78,662.75 340.32,650.84 313.85,630.93C339.44,690.67 380.83,784 421.75,862.24C422.11,862.93 423.93,866.09 424.2,866.57C443,898.73 477.59,920.55 517.42,921.26C545.97,918.91 571.46,906.5 590.06,887.84C598.98,880.01 607.14,870.68 614.25,859.73C635.72,826.68 714.88,663.98 779.97,527.54Z" style="fill:rgb(242,130,98);fill-rule:nonzero;"></path>
    </g>
</svg>
